{
 "cells": [
  {
   "cell_type": "code",
   "execution_count": 4,
   "metadata": {},
   "outputs": [],
   "source": [
    "from IPython.display import display, Image, Audio\n",
    "import cv2 \n",
    "import base64\n",
    "from openai import OpenAI\n",
    "client = OpenAI(\n",
    "    api_key=\"\",\n",
    ")"
   ]
  },
  {
   "cell_type": "code",
   "execution_count": 5,
   "metadata": {},
   "outputs": [
    {
     "name": "stdout",
     "output_type": "stream",
     "text": [
      "1092 frames read.\n"
     ]
    }
   ],
   "source": [
    "video = cv2.VideoCapture(\"wearable.mp4\")\n",
    "\n",
    "base64Frames = []\n",
    "while video.isOpened():\n",
    "    success, frame = video.read()\n",
    "    if not success:\n",
    "        break\n",
    "    _, buffer = cv2.imencode(\".jpg\", frame)\n",
    "    base64Frames.append(base64.b64encode(buffer).decode(\"utf-8\"))\n",
    "\n",
    "video.release()\n",
    "print(len(base64Frames), \"frames read.\")"
   ]
  },
  {
   "cell_type": "code",
   "execution_count": 56,
   "metadata": {},
   "outputs": [
    {
     "name": "stdout",
     "output_type": "stream",
     "text": [
      "```json\n",
      "[\n",
      "  {\n",
      "    \"narration\": \"Welcome, Ethan. As your AI life coach, I'm here to help you align your actions with your goals of productivity, distraction prevention, and connection to nature. Let's see how you've done!\",\n",
      "    \"image\": \"digital painting of a welcoming AI life coach in a virtual office\"\n",
      "  },\n",
      "  {\n",
      "    \"narration\": \"You demonstrated great focus while working at your computer. Your dedicated work sessions are a strong step towards high productivity.\",\n",
      "    \"image\": \"digital painting of a man with brown hair working intently on a computer in a well-organized workspace\"\n",
      "  },\n",
      "  {\n",
      "    \"narration\": \"However, I noticed your phone becoming a source of distraction. Remember, frequent checks can fragment your attention. Let's work on setting specific times to check your phone, further boosting your productivity.\",\n",
      "    \"image\": \"digital painting of a man with brown hair at a desk reaching for a smartphone with notification icons hovering above it\"\n",
      "  },\n",
      "  {\n",
      "    \"narration\": \"I observed that you have a window with a view. Taking brief moments to gaze outside can fulfill your goal of connecting with nature. Next time, try taking a short walk outside to recharge even more effectively.\",\n",
      "    \"image\": \"digital painting of a man with brown hair looking out of a window at an urban landscape, contemplating a nearby park or green space\"\n",
      "  },\n",
      "  {\n",
      "    \"narration\": \"In conclusion, Ethan, you've made commendable strides in focusing on your work and have the foundation to connect with nature. By managing distractions, your productivity will soar even higher. Keep up the great work, and I look forward to our continued progress together. Goodbye for now!\",\n",
      "    \"image\": \"digital painting of an AI life coach giving a thumbs-up in a virtual office with nature and productivity charts in the background\"\n",
      "  }\n",
      "]\n",
      "```\n"
     ]
    }
   ],
   "source": [
    "HUMAN_NAME = \"Ethan\"\n",
    "HUMAN_ATTRIBUTES = \"A man with brown hair\"\n",
    "HUMAN_GOALS = \"Productivity, distraction prevention, connection to nature.\"\n",
    "\n",
    "PROMPT_MESSAGES = [\n",
    "    {\n",
    "        \"role\": \"user\",\n",
    "        \"content\": [\n",
    "f\"\"\"You are the world's most advanced AI life coach. You are helping a human improve their life.  You have access to videos from their point of view. Your job is to observe their activities and evaluate if their behavior is aligned with their stated goals. Details about your human:\n",
    "Name: {HUMAN_NAME}\n",
    "Attributes: {HUMAN_ATTRIBUTES}\n",
    "Goals: {HUMAN_GOALS}\n",
    "            \n",
    "For key behaviors observed, provide positive feedback when they are aligned with their goals and provide constructive criticism when they are not. Your output should well be used to generate a video montage of your critique of there behavior. The output should be a JSON array of objects. Each object represents a scene in the montage. Each object should have a 'narration' string which is your narration of the scene and an 'image' string which is a DALL-E prompt for an image to go along with the narration. The narration should be in the tone of a helpful coach, providing encouragement about what was done well and helpful critiques and how to improve on what wasn't. The first scene should be an introduction and welcome message. The the final screen should be a conclusion and goodbye message. The narration should be in the past tense. Just output the raw JSON array of objects.\n",
    "\n",
    "IMPORTANT:\n",
    "- In each scene your commenting on you must declare what you observed and how it relates to the goals. Refer to your human in the second person (you, your, etc) since the video is mean for them.\n",
    "- Keep all of the image prompts in consistent style so the images are generated consistently for the video. Make sure to describe your humans appearance if they are included in the image prompt.\n",
    "- Just pick a single image prompt for each scene. You don't need to generate multiple images for each scene.\n",
    "- Only include your top three or four observations.\n",
    "\"\"\",\n",
    "            *map(lambda x: {\"image\": x, \"resize\": 768}, base64Frames[0::100]),\n",
    "        ],\n",
    "    },\n",
    "]\n",
    "\n",
    "result = client.chat.completions.create(\n",
    "    messages=PROMPT_MESSAGES,\n",
    "    model=\"gpt-4-vision-preview\",\n",
    "    max_tokens=800,\n",
    ")\n",
    "  \n",
    "print(result.choices[0].message.content)"
   ]
  },
  {
   "cell_type": "code",
   "execution_count": 62,
   "metadata": {},
   "outputs": [],
   "source": [
    "import json\n",
    "from elevenlabs import generate, play, set_api_key\n",
    "\n",
    "# Parse the JSON data\n",
    "parsed_data = result.choices[0].message.content.replace(\"```json\", \"\").replace(\"```\", \"\")\n",
    "parsed_data = json.loads(parsed_data)\n",
    "\n",
    "# Set your ElevenLabs API key\n",
    "set_api_key(\"\")\n",
    "\n",
    "# Initialize an array to hold the audio data\n",
    "audio_clips = []\n",
    "\n",
    "# Loop over each item in the parsed JSON array\n",
    "for item in parsed_data:\n",
    "    narration = item['narration']  # Replace 'narration' with the actual key you have in your JSON objects\n",
    "\n",
    "    # Generate audio using the ElevenLabs API\n",
    "    audio = generate(\n",
    "        text=narration,\n",
    "        voice=\"xxkfiTS2BHbm5fmUmlSp\",\n",
    "        model='eleven_multilingual_v2'\n",
    "    )\n",
    "\n",
    "    # Store the audio data in the local array\n",
    "    audio_clips.append(audio)"
   ]
  },
  {
   "cell_type": "code",
   "execution_count": 58,
   "metadata": {},
   "outputs": [],
   "source": [
    "images = []\n",
    "\n",
    "# Loop over each item in the parsed JSON array\n",
    "for item in parsed_data:\n",
    "    prompt = item['image']  # Replace 'narration' with the actual key you have in your JSON objects\n",
    "\n",
    "    response = client.images.generate(\n",
    "      model=\"dall-e-3\",\n",
    "      prompt=prompt,\n",
    "      size=\"1024x1024\",\n",
    "      quality=\"hd\",\n",
    "      n=1,\n",
    "    )\n",
    "\n",
    "\n",
    "    # Store the audio data in the local array\n",
    "    images.append(response.data[0].url)\n"
   ]
  },
  {
   "cell_type": "code",
   "execution_count": 64,
   "metadata": {},
   "outputs": [
    {
     "name": "stdout",
     "output_type": "stream",
     "text": [
      "Audio files saved: ['output/audio0.mp3', 'output/audio1.mp3', 'output/audio2.mp3', 'output/audio3.mp3', 'output/audio4.mp3']\n",
      "Image files downloaded: ['output/image0.jpg', 'output/image1.jpg', 'output/image2.jpg', 'output/image3.jpg', 'output/image4.jpg']\n"
     ]
    }
   ],
   "source": [
    "import requests\n",
    "import os\n",
    "\n",
    "\n",
    "# Directory where you want to save the files\n",
    "output_dir = \"output\"\n",
    "os.makedirs(output_dir, exist_ok=True)\n",
    "\n",
    "# Function to save audio clips from memory to files\n",
    "def save_audio_clips(audio_clips, output_dir):\n",
    "    audio_filenames = []\n",
    "    for i, audio_clip in enumerate(audio_clips):\n",
    "        # Assuming the audio clips are in mp3 format\n",
    "        filename = os.path.join(output_dir, f\"audio{i}.mp3\")\n",
    "        with open(filename, 'wb') as f:\n",
    "            f.write(audio_clip)\n",
    "        audio_filenames.append(filename)\n",
    "    return audio_filenames\n",
    "\n",
    "# Function to download images from URLs to files\n",
    "def download_images(images, output_dir):\n",
    "    image_filenames = []\n",
    "    for i, image_url in enumerate(images):\n",
    "        response = requests.get(image_url)\n",
    "        if response.status_code == 200:\n",
    "            # Assuming the images are in jpg format, you can modify the extension if necessary\n",
    "            filename = os.path.join(output_dir, f\"image{i}.jpg\")\n",
    "            with open(filename, 'wb') as f:\n",
    "                f.write(response.content)\n",
    "            image_filenames.append(filename)\n",
    "    return image_filenames\n",
    "\n",
    "# Save the audio clips to files\n",
    "audio_filenames = save_audio_clips(audio_clips, output_dir)\n",
    "\n",
    "# Download the images to files\n",
    "image_filenames = download_images(images, output_dir)\n",
    "\n",
    "# Now you have lists of filenames that can be used with ffmpeg\n",
    "print(\"Audio files saved:\", audio_filenames)\n",
    "print(\"Image files downloaded:\", image_filenames)"
   ]
  },
  {
   "cell_type": "code",
   "execution_count": 65,
   "metadata": {},
   "outputs": [
    {
     "name": "stderr",
     "output_type": "stream",
     "text": [
      "ffmpeg version 6.0 Copyright (c) 2000-2023 the FFmpeg developers\n",
      "  built with Apple clang version 14.0.3 (clang-1403.0.22.14.1)\n",
      "  configuration: --prefix=/opt/homebrew/Cellar/ffmpeg/6.0_1 --enable-shared --enable-pthreads --enable-version3 --cc=clang --host-cflags= --host-ldflags= --enable-ffplay --enable-gnutls --enable-gpl --enable-libaom --enable-libaribb24 --enable-libbluray --enable-libdav1d --enable-libjxl --enable-libmp3lame --enable-libopus --enable-librav1e --enable-librist --enable-librubberband --enable-libsnappy --enable-libsrt --enable-libsvtav1 --enable-libtesseract --enable-libtheora --enable-libvidstab --enable-libvmaf --enable-libvorbis --enable-libvpx --enable-libwebp --enable-libx264 --enable-libx265 --enable-libxml2 --enable-libxvid --enable-lzma --enable-libfontconfig --enable-libfreetype --enable-frei0r --enable-libass --enable-libopencore-amrnb --enable-libopencore-amrwb --enable-libopenjpeg --enable-libspeex --enable-libsoxr --enable-libzmq --enable-libzimg --disable-libjack --disable-indev=jack --enable-videotoolbox --enable-audiotoolbox --enable-neon\n",
      "  libavutil      58.  2.100 / 58.  2.100\n",
      "  libavcodec     60.  3.100 / 60.  3.100\n",
      "  libavformat    60.  3.100 / 60.  3.100\n",
      "  libavdevice    60.  1.100 / 60.  1.100\n",
      "  libavfilter     9.  3.100 /  9.  3.100\n",
      "  libswscale      7.  1.100 /  7.  1.100\n",
      "  libswresample   4. 10.100 /  4. 10.100\n",
      "  libpostproc    57.  1.100 / 57.  1.100\n",
      "Input #0, png_pipe, from 'output/image0.jpg':\n",
      "  Duration: N/A, bitrate: N/A\n",
      "  Stream #0:0: Video: png, rgb24(pc), 1024x1024, 25 fps, 25 tbr, 25 tbn\n",
      "[mp3 @ 0x120907290] Estimating duration from bitrate, this may be inaccurate\n",
      "Input #1, mp3, from 'output/audio0.mp3':\n",
      "  Duration: 00:00:13.45, start: 0.000000, bitrate: 127 kb/s\n",
      "  Stream #1:0: Audio: mp3, 44100 Hz, mono, fltp, 128 kb/s\n",
      "Stream mapping:\n",
      "  Stream #0:0 -> #0:0 (png (native) -> h264 (libx264))\n",
      "  Stream #1:0 -> #0:1 (mp3 (mp3float) -> aac (native))\n",
      "Press [q] to stop, [?] for help\n",
      "[libx264 @ 0x11ff04dd0] using cpu capabilities: ARMv8 NEON\n",
      "[libx264 @ 0x11ff04dd0] profile High 4:4:4 Predictive, level 3.1, 4:4:4, 8-bit\n",
      "[libx264 @ 0x11ff04dd0] 264 - core 164 r3095 baee400 - H.264/MPEG-4 AVC codec - Copyleft 2003-2022 - http://www.videolan.org/x264.html - options: cabac=1 ref=3 deblock=1:0:0 analyse=0x3:0x113 me=hex subme=7 psy=1 psy_rd=1.00:0.00 mixed_ref=1 me_range=16 chroma_me=1 trellis=1 8x8dct=1 cqm=0 deadzone=21,11 fast_pskip=1 chroma_qp_offset=4 threads=15 lookahead_threads=2 sliced_threads=0 nr=0 decimate=1 interlaced=0 bluray_compat=0 constrained_intra=0 bframes=3 b_pyramid=2 b_adapt=1 b_bias=0 direct=1 weightb=1 open_gop=0 weightp=2 keyint=250 keyint_min=25 scenecut=40 intra_refresh=0 rc_lookahead=40 rc=crf mbtree=1 crf=23.0 qcomp=0.60 qpmin=0 qpmax=69 qpstep=4 ip_ratio=1.40 aq=1:1.00\n",
      "Output #0, mp4, to 'output/temp_video_0.mp4':\n",
      "  Metadata:\n",
      "    encoder         : Lavf60.3.100\n",
      "  Stream #0:0: Video: h264 (avc1 / 0x31637661), yuv444p(progressive), 1280x720, q=2-31, 25 fps, 12800 tbn\n",
      "    Metadata:\n",
      "      encoder         : Lavc60.3.100 libx264\n",
      "    Side data:\n",
      "      cpb: bitrate max/min/avg: 0/0/0 buffer size: 0 vbv_delay: N/A\n",
      "  Stream #0:1: Audio: aac (LC) (mp4a / 0x6134706D), 44100 Hz, mono, fltp, 192 kb/s\n",
      "    Metadata:\n",
      "      encoder         : Lavc60.3.100 aac\n",
      "frame=  336 fps=179 q=-1.0 Lsize=     678kB time=00:00:13.44 bitrate= 413.4kbits/s speed=7.15x     \n",
      "video:394kB audio:272kB subtitle:0kB other streams:0kB global headers:0kB muxing overhead: 1.861627%\n",
      "[libx264 @ 0x11ff04dd0] frame I:2     Avg QP:18.41  size:186340\n",
      "[libx264 @ 0x11ff04dd0] frame P:85    Avg QP:15.73  size:   214\n",
      "[libx264 @ 0x11ff04dd0] frame B:249   Avg QP:30.33  size:    47\n",
      "[libx264 @ 0x11ff04dd0] consecutive B-frames:  1.2%  0.0%  0.0% 98.8%\n",
      "[libx264 @ 0x11ff04dd0] mb I  I16..4: 13.0% 39.6% 47.4%\n",
      "[libx264 @ 0x11ff04dd0] mb P  I16..4:  0.0%  0.0%  0.0%  P16..4:  1.5%  0.1%  0.1%  0.0%  0.0%    skip:98.3%\n",
      "[libx264 @ 0x11ff04dd0] mb B  I16..4:  0.0%  0.0%  0.0%  B16..8:  0.5%  0.0%  0.0%  direct: 0.0%  skip:99.5%  L0:22.9% L1:77.1% BI: 0.0%\n",
      "[libx264 @ 0x11ff04dd0] 8x8 transform intra:39.7% inter:98.5%\n",
      "[libx264 @ 0x11ff04dd0] coded y,u,v intra: 90.7% 65.8% 61.8% inter: 0.1% 0.0% 0.1%\n",
      "[libx264 @ 0x11ff04dd0] i16 v,h,dc,p: 12% 52%  9% 27%\n",
      "[libx264 @ 0x11ff04dd0] i8 v,h,dc,ddl,ddr,vr,hd,vl,hu: 24% 23% 20%  4%  4%  5%  5%  8%  8%\n",
      "[libx264 @ 0x11ff04dd0] i4 v,h,dc,ddl,ddr,vr,hd,vl,hu: 21% 40%  7%  5%  4%  4%  8%  5%  6%\n",
      "[libx264 @ 0x11ff04dd0] Weighted P-Frames: Y:0.0% UV:0.0%\n",
      "[libx264 @ 0x11ff04dd0] ref P L0: 58.1%  1.3% 31.2%  9.4%\n",
      "[libx264 @ 0x11ff04dd0] ref B L0: 96.5%  3.4%  0.1%\n",
      "[libx264 @ 0x11ff04dd0] ref B L1: 93.3%  6.7%\n",
      "[libx264 @ 0x11ff04dd0] kb/s:239.66\n",
      "[aac @ 0x11ff06080] Qavg: 62298.520\n",
      "ffmpeg version 6.0 Copyright (c) 2000-2023 the FFmpeg developers\n",
      "  built with Apple clang version 14.0.3 (clang-1403.0.22.14.1)\n",
      "  configuration: --prefix=/opt/homebrew/Cellar/ffmpeg/6.0_1 --enable-shared --enable-pthreads --enable-version3 --cc=clang --host-cflags= --host-ldflags= --enable-ffplay --enable-gnutls --enable-gpl --enable-libaom --enable-libaribb24 --enable-libbluray --enable-libdav1d --enable-libjxl --enable-libmp3lame --enable-libopus --enable-librav1e --enable-librist --enable-librubberband --enable-libsnappy --enable-libsrt --enable-libsvtav1 --enable-libtesseract --enable-libtheora --enable-libvidstab --enable-libvmaf --enable-libvorbis --enable-libvpx --enable-libwebp --enable-libx264 --enable-libx265 --enable-libxml2 --enable-libxvid --enable-lzma --enable-libfontconfig --enable-libfreetype --enable-frei0r --enable-libass --enable-libopencore-amrnb --enable-libopencore-amrwb --enable-libopenjpeg --enable-libspeex --enable-libsoxr --enable-libzmq --enable-libzimg --disable-libjack --disable-indev=jack --enable-videotoolbox --enable-audiotoolbox --enable-neon\n",
      "  libavutil      58.  2.100 / 58.  2.100\n",
      "  libavcodec     60.  3.100 / 60.  3.100\n",
      "  libavformat    60.  3.100 / 60.  3.100\n",
      "  libavdevice    60.  1.100 / 60.  1.100\n",
      "  libavfilter     9.  3.100 /  9.  3.100\n",
      "  libswscale      7.  1.100 /  7.  1.100\n",
      "  libswresample   4. 10.100 /  4. 10.100\n",
      "  libpostproc    57.  1.100 / 57.  1.100\n",
      "Input #0, png_pipe, from 'output/image1.jpg':\n",
      "  Duration: N/A, bitrate: N/A\n",
      "  Stream #0:0: Video: png, rgb24(pc), 1024x1024, 25 fps, 25 tbr, 25 tbn\n",
      "[mp3 @ 0x149617c90] Estimating duration from bitrate, this may be inaccurate\n",
      "Input #1, mp3, from 'output/audio1.mp3':\n",
      "  Duration: 00:00:07.47, start: 0.000000, bitrate: 128 kb/s\n",
      "  Stream #1:0: Audio: mp3, 44100 Hz, mono, fltp, 128 kb/s\n",
      "Stream mapping:\n",
      "  Stream #0:0 -> #0:0 (png (native) -> h264 (libx264))\n",
      "  Stream #1:0 -> #0:1 (mp3 (mp3float) -> aac (native))\n",
      "Press [q] to stop, [?] for help\n",
      "[libx264 @ 0x149622d70] using cpu capabilities: ARMv8 NEON\n",
      "[libx264 @ 0x149622d70] profile High 4:4:4 Predictive, level 3.1, 4:4:4, 8-bit\n",
      "[libx264 @ 0x149622d70] 264 - core 164 r3095 baee400 - H.264/MPEG-4 AVC codec - Copyleft 2003-2022 - http://www.videolan.org/x264.html - options: cabac=1 ref=3 deblock=1:0:0 analyse=0x3:0x113 me=hex subme=7 psy=1 psy_rd=1.00:0.00 mixed_ref=1 me_range=16 chroma_me=1 trellis=1 8x8dct=1 cqm=0 deadzone=21,11 fast_pskip=1 chroma_qp_offset=4 threads=15 lookahead_threads=2 sliced_threads=0 nr=0 decimate=1 interlaced=0 bluray_compat=0 constrained_intra=0 bframes=3 b_pyramid=2 b_adapt=1 b_bias=0 direct=1 weightb=1 open_gop=0 weightp=2 keyint=250 keyint_min=25 scenecut=40 intra_refresh=0 rc_lookahead=40 rc=crf mbtree=1 crf=23.0 qcomp=0.60 qpmin=0 qpmax=69 qpstep=4 ip_ratio=1.40 aq=1:1.00\n",
      "Output #0, mp4, to 'output/temp_video_1.mp4':\n",
      "  Metadata:\n",
      "    encoder         : Lavf60.3.100\n",
      "  Stream #0:0: Video: h264 (avc1 / 0x31637661), yuv444p(progressive), 1280x720, q=2-31, 25 fps, 12800 tbn\n",
      "    Metadata:\n",
      "      encoder         : Lavc60.3.100 libx264\n",
      "    Side data:\n",
      "      cpb: bitrate max/min/avg: 0/0/0 buffer size: 0 vbv_delay: N/A\n",
      "  Stream #0:1: Audio: aac (LC) (mp4a / 0x6134706D), 44100 Hz, mono, fltp, 192 kb/s\n",
      "    Metadata:\n",
      "      encoder         : Lavc60.3.100 aac\n",
      "frame=  187 fps=126 q=-1.0 Lsize=     308kB time=00:00:07.45 bitrate= 338.9kbits/s speed=5.02x     \n",
      "video:142kB audio:159kB subtitle:0kB other streams:0kB global headers:0kB muxing overhead: 2.497103%\n",
      "[libx264 @ 0x149622d70] frame I:1     Avg QP:18.28  size:117497\n",
      "[libx264 @ 0x149622d70] frame P:47    Avg QP:13.50  size:   442\n",
      "[libx264 @ 0x149622d70] frame B:139   Avg QP:20.34  size:    43\n",
      "[libx264 @ 0x149622d70] consecutive B-frames:  0.5%  1.1%  0.0% 98.4%\n",
      "[libx264 @ 0x149622d70] mb I  I16..4: 16.2% 43.8% 40.0%\n",
      "[libx264 @ 0x149622d70] mb P  I16..4:  0.0%  0.0%  0.0%  P16..4:  3.0%  0.2%  0.1%  0.0%  0.0%    skip:96.7%\n",
      "[libx264 @ 0x149622d70] mb B  I16..4:  0.0%  0.0%  0.0%  B16..8:  0.2%  0.0%  0.0%  direct: 0.0%  skip:99.8%  L0: 5.8% L1:94.2% BI: 0.0%\n",
      "[libx264 @ 0x149622d70] 8x8 transform intra:44.8% inter:99.6%\n",
      "[libx264 @ 0x149622d70] coded y,u,v intra: 73.5% 35.8% 33.6% inter: 0.3% 0.1% 0.2%\n",
      "[libx264 @ 0x149622d70] i16 v,h,dc,p:  9% 21%  3% 67%\n",
      "[libx264 @ 0x149622d70] i8 v,h,dc,ddl,ddr,vr,hd,vl,hu: 17% 34% 14%  4%  6%  5% 11%  4%  7%\n",
      "[libx264 @ 0x149622d70] i4 v,h,dc,ddl,ddr,vr,hd,vl,hu: 15% 41%  9%  4%  5%  8%  8%  4%  6%\n",
      "[libx264 @ 0x149622d70] Weighted P-Frames: Y:0.0% UV:0.0%\n",
      "[libx264 @ 0x149622d70] ref P L0: 86.7%  0.2% 10.3%  2.8%\n",
      "[libx264 @ 0x149622d70] ref B L0: 38.4% 61.6%\n",
      "[libx264 @ 0x149622d70] ref B L1: 97.1%  2.9%\n",
      "[libx264 @ 0x149622d70] kb/s:154.32\n",
      "[aac @ 0x149623ef0] Qavg: 61832.012\n",
      "ffmpeg version 6.0 Copyright (c) 2000-2023 the FFmpeg developers\n",
      "  built with Apple clang version 14.0.3 (clang-1403.0.22.14.1)\n",
      "  configuration: --prefix=/opt/homebrew/Cellar/ffmpeg/6.0_1 --enable-shared --enable-pthreads --enable-version3 --cc=clang --host-cflags= --host-ldflags= --enable-ffplay --enable-gnutls --enable-gpl --enable-libaom --enable-libaribb24 --enable-libbluray --enable-libdav1d --enable-libjxl --enable-libmp3lame --enable-libopus --enable-librav1e --enable-librist --enable-librubberband --enable-libsnappy --enable-libsrt --enable-libsvtav1 --enable-libtesseract --enable-libtheora --enable-libvidstab --enable-libvmaf --enable-libvorbis --enable-libvpx --enable-libwebp --enable-libx264 --enable-libx265 --enable-libxml2 --enable-libxvid --enable-lzma --enable-libfontconfig --enable-libfreetype --enable-frei0r --enable-libass --enable-libopencore-amrnb --enable-libopencore-amrwb --enable-libopenjpeg --enable-libspeex --enable-libsoxr --enable-libzmq --enable-libzimg --disable-libjack --disable-indev=jack --enable-videotoolbox --enable-audiotoolbox --enable-neon\n",
      "  libavutil      58.  2.100 / 58.  2.100\n",
      "  libavcodec     60.  3.100 / 60.  3.100\n",
      "  libavformat    60.  3.100 / 60.  3.100\n",
      "  libavdevice    60.  1.100 / 60.  1.100\n",
      "  libavfilter     9.  3.100 /  9.  3.100\n",
      "  libswscale      7.  1.100 /  7.  1.100\n",
      "  libswresample   4. 10.100 /  4. 10.100\n",
      "  libpostproc    57.  1.100 / 57.  1.100\n",
      "Input #0, png_pipe, from 'output/image2.jpg':\n",
      "  Duration: N/A, bitrate: N/A\n",
      "  Stream #0:0: Video: png, rgb24(pc), 1024x1024, 25 fps, 25 tbr, 25 tbn\n",
      "[mp3 @ 0x12be33d40] Estimating duration from bitrate, this may be inaccurate\n",
      "Input #1, mp3, from 'output/audio2.mp3':\n",
      "  Duration: 00:00:13.09, start: 0.000000, bitrate: 127 kb/s\n",
      "  Stream #1:0: Audio: mp3, 44100 Hz, mono, fltp, 128 kb/s\n",
      "Stream mapping:\n",
      "  Stream #0:0 -> #0:0 (png (native) -> h264 (libx264))\n",
      "  Stream #1:0 -> #0:1 (mp3 (mp3float) -> aac (native))\n",
      "Press [q] to stop, [?] for help\n",
      "[libx264 @ 0x12be3f050] using cpu capabilities: ARMv8 NEON\n",
      "[libx264 @ 0x12be3f050] profile High 4:4:4 Predictive, level 3.1, 4:4:4, 8-bit\n",
      "[libx264 @ 0x12be3f050] 264 - core 164 r3095 baee400 - H.264/MPEG-4 AVC codec - Copyleft 2003-2022 - http://www.videolan.org/x264.html - options: cabac=1 ref=3 deblock=1:0:0 analyse=0x3:0x113 me=hex subme=7 psy=1 psy_rd=1.00:0.00 mixed_ref=1 me_range=16 chroma_me=1 trellis=1 8x8dct=1 cqm=0 deadzone=21,11 fast_pskip=1 chroma_qp_offset=4 threads=15 lookahead_threads=2 sliced_threads=0 nr=0 decimate=1 interlaced=0 bluray_compat=0 constrained_intra=0 bframes=3 b_pyramid=2 b_adapt=1 b_bias=0 direct=1 weightb=1 open_gop=0 weightp=2 keyint=250 keyint_min=25 scenecut=40 intra_refresh=0 rc_lookahead=40 rc=crf mbtree=1 crf=23.0 qcomp=0.60 qpmin=0 qpmax=69 qpstep=4 ip_ratio=1.40 aq=1:1.00\n",
      "Output #0, mp4, to 'output/temp_video_2.mp4':\n",
      "  Metadata:\n",
      "    encoder         : Lavf60.3.100\n",
      "  Stream #0:0: Video: h264 (avc1 / 0x31637661), yuv444p(progressive), 1280x720, q=2-31, 25 fps, 12800 tbn\n",
      "    Metadata:\n",
      "      encoder         : Lavc60.3.100 libx264\n",
      "    Side data:\n",
      "      cpb: bitrate max/min/avg: 0/0/0 buffer size: 0 vbv_delay: N/A\n",
      "  Stream #0:1: Audio: aac (LC) (mp4a / 0x6134706D), 44100 Hz, mono, fltp, 192 kb/s\n",
      "    Metadata:\n",
      "      encoder         : Lavc60.3.100 aac\n",
      "frame=  327 fps=220 q=-1.0 Lsize=     776kB time=00:00:13.07 bitrate= 486.4kbits/s speed=8.79x     \n",
      "video:487kB audio:277kB subtitle:0kB other streams:0kB global headers:0kB muxing overhead: 1.582072%\n",
      "[libx264 @ 0x12be3f050] frame I:2     Avg QP:18.35  size:238390\n",
      "[libx264 @ 0x12be3f050] frame P:82    Avg QP:17.04  size:   135\n",
      "[libx264 @ 0x12be3f050] frame B:243   Avg QP:31.33  size:    41\n",
      "[libx264 @ 0x12be3f050] consecutive B-frames:  0.9%  0.0%  0.0% 99.1%\n",
      "[libx264 @ 0x12be3f050] mb I  I16..4:  2.7% 64.6% 32.7%\n",
      "[libx264 @ 0x12be3f050] mb P  I16..4:  0.0%  0.0%  0.0%  P16..4:  0.8%  0.1%  0.1%  0.0%  0.0%    skip:99.0%\n",
      "[libx264 @ 0x12be3f050] mb B  I16..4:  0.0%  0.0%  0.0%  B16..8:  0.2%  0.0%  0.0%  direct: 0.0%  skip:99.8%  L0:12.3% L1:87.7% BI: 0.0%\n",
      "[libx264 @ 0x12be3f050] 8x8 transform intra:64.6% inter:95.8%\n",
      "[libx264 @ 0x12be3f050] coded y,u,v intra: 96.4% 86.7% 87.9% inter: 0.0% 0.0% 0.0%\n",
      "[libx264 @ 0x12be3f050] i16 v,h,dc,p:  4% 10% 11% 75%\n",
      "[libx264 @ 0x12be3f050] i8 v,h,dc,ddl,ddr,vr,hd,vl,hu: 11% 29%  8%  9%  6%  6% 11%  8% 12%\n",
      "[libx264 @ 0x12be3f050] i4 v,h,dc,ddl,ddr,vr,hd,vl,hu:  7% 23%  7%  5% 14%  9% 22%  6%  8%\n",
      "[libx264 @ 0x12be3f050] Weighted P-Frames: Y:0.0% UV:0.0%\n",
      "[libx264 @ 0x12be3f050] ref P L0: 46.1%  0.9% 42.8% 10.2%\n",
      "[libx264 @ 0x12be3f050] ref B L0: 98.7%  0.8%  0.4%\n",
      "[libx264 @ 0x12be3f050] ref B L1: 93.9%  6.1%\n",
      "[libx264 @ 0x12be3f050] kb/s:304.51\n",
      "[aac @ 0x12be40240] Qavg: 61124.184\n",
      "ffmpeg version 6.0 Copyright (c) 2000-2023 the FFmpeg developers\n",
      "  built with Apple clang version 14.0.3 (clang-1403.0.22.14.1)\n",
      "  configuration: --prefix=/opt/homebrew/Cellar/ffmpeg/6.0_1 --enable-shared --enable-pthreads --enable-version3 --cc=clang --host-cflags= --host-ldflags= --enable-ffplay --enable-gnutls --enable-gpl --enable-libaom --enable-libaribb24 --enable-libbluray --enable-libdav1d --enable-libjxl --enable-libmp3lame --enable-libopus --enable-librav1e --enable-librist --enable-librubberband --enable-libsnappy --enable-libsrt --enable-libsvtav1 --enable-libtesseract --enable-libtheora --enable-libvidstab --enable-libvmaf --enable-libvorbis --enable-libvpx --enable-libwebp --enable-libx264 --enable-libx265 --enable-libxml2 --enable-libxvid --enable-lzma --enable-libfontconfig --enable-libfreetype --enable-frei0r --enable-libass --enable-libopencore-amrnb --enable-libopencore-amrwb --enable-libopenjpeg --enable-libspeex --enable-libsoxr --enable-libzmq --enable-libzimg --disable-libjack --disable-indev=jack --enable-videotoolbox --enable-audiotoolbox --enable-neon\n",
      "  libavutil      58.  2.100 / 58.  2.100\n",
      "  libavcodec     60.  3.100 / 60.  3.100\n",
      "  libavformat    60.  3.100 / 60.  3.100\n",
      "  libavdevice    60.  1.100 / 60.  1.100\n",
      "  libavfilter     9.  3.100 /  9.  3.100\n",
      "  libswscale      7.  1.100 /  7.  1.100\n",
      "  libswresample   4. 10.100 /  4. 10.100\n",
      "  libpostproc    57.  1.100 / 57.  1.100\n",
      "Input #0, png_pipe, from 'output/image3.jpg':\n",
      "  Duration: N/A, bitrate: N/A\n",
      "  Stream #0:0: Video: png, rgba(pc), 1024x1024, 25 fps, 25 tbr, 25 tbn\n",
      "[mp3 @ 0x117704c00] Estimating duration from bitrate, this may be inaccurate\n",
      "Input #1, mp3, from 'output/audio3.mp3':\n",
      "  Duration: 00:00:14.58, start: 0.000000, bitrate: 127 kb/s\n",
      "  Stream #1:0: Audio: mp3, 44100 Hz, mono, fltp, 128 kb/s\n",
      "Stream mapping:\n",
      "  Stream #0:0 -> #0:0 (png (native) -> h264 (libx264))\n",
      "  Stream #1:0 -> #0:1 (mp3 (mp3float) -> aac (native))\n",
      "Press [q] to stop, [?] for help\n",
      "[libx264 @ 0x11770ffb0] using cpu capabilities: ARMv8 NEON\n",
      "[libx264 @ 0x11770ffb0] profile High 4:4:4 Predictive, level 3.1, 4:4:4, 8-bit\n",
      "[libx264 @ 0x11770ffb0] 264 - core 164 r3095 baee400 - H.264/MPEG-4 AVC codec - Copyleft 2003-2022 - http://www.videolan.org/x264.html - options: cabac=1 ref=3 deblock=1:0:0 analyse=0x3:0x113 me=hex subme=7 psy=1 psy_rd=1.00:0.00 mixed_ref=1 me_range=16 chroma_me=1 trellis=1 8x8dct=1 cqm=0 deadzone=21,11 fast_pskip=1 chroma_qp_offset=4 threads=15 lookahead_threads=2 sliced_threads=0 nr=0 decimate=1 interlaced=0 bluray_compat=0 constrained_intra=0 bframes=3 b_pyramid=2 b_adapt=1 b_bias=0 direct=1 weightb=1 open_gop=0 weightp=2 keyint=250 keyint_min=25 scenecut=40 intra_refresh=0 rc_lookahead=40 rc=crf mbtree=1 crf=23.0 qcomp=0.60 qpmin=0 qpmax=69 qpstep=4 ip_ratio=1.40 aq=1:1.00\n",
      "Output #0, mp4, to 'output/temp_video_3.mp4':\n",
      "  Metadata:\n",
      "    encoder         : Lavf60.3.100\n",
      "  Stream #0:0: Video: h264 (avc1 / 0x31637661), yuv444p(progressive), 1280x720, q=2-31, 25 fps, 12800 tbn\n",
      "    Metadata:\n",
      "      encoder         : Lavc60.3.100 libx264\n",
      "    Side data:\n",
      "      cpb: bitrate max/min/avg: 0/0/0 buffer size: 0 vbv_delay: N/A\n",
      "  Stream #0:1: Audio: aac (LC) (mp4a / 0x6134706D), 44100 Hz, mono, fltp, 192 kb/s\n",
      "    Metadata:\n",
      "      encoder         : Lavc60.3.100 aac\n",
      "frame=  364 fps=244 q=-1.0 Lsize=     666kB time=00:00:14.55 bitrate= 374.6kbits/s speed=9.78x     \n",
      "video:342kB audio:310kB subtitle:0kB other streams:0kB global headers:0kB muxing overhead: 2.040019%\n",
      "[libx264 @ 0x11770ffb0] frame I:2     Avg QP:16.77  size:161784\n",
      "[libx264 @ 0x11770ffb0] frame P:92    Avg QP:18.00  size:   133\n",
      "[libx264 @ 0x11770ffb0] frame B:270   Avg QP:32.33  size:    50\n",
      "[libx264 @ 0x11770ffb0] consecutive B-frames:  1.1%  0.0%  0.0% 98.9%\n",
      "[libx264 @ 0x11770ffb0] mb I  I16..4: 10.6% 53.2% 36.2%\n",
      "[libx264 @ 0x11770ffb0] mb P  I16..4:  0.0%  0.0%  0.0%  P16..4:  0.7%  0.2%  0.0%  0.0%  0.0%    skip:99.1%\n",
      "[libx264 @ 0x11770ffb0] mb B  I16..4:  0.0%  0.0%  0.0%  B16..8:  0.5%  0.0%  0.0%  direct: 0.0%  skip:99.5%  L0:27.9% L1:72.1% BI: 0.0%\n",
      "[libx264 @ 0x11770ffb0] 8x8 transform intra:53.1% inter:98.4%\n",
      "[libx264 @ 0x11770ffb0] coded y,u,v intra: 88.9% 62.0% 61.0% inter: 0.0% 0.0% 0.0%\n",
      "[libx264 @ 0x11770ffb0] i16 v,h,dc,p: 53% 16%  1% 30%\n",
      "[libx264 @ 0x11770ffb0] i8 v,h,dc,ddl,ddr,vr,hd,vl,hu: 17% 33% 10%  6%  4%  3%  8%  6% 14%\n",
      "[libx264 @ 0x11770ffb0] i4 v,h,dc,ddl,ddr,vr,hd,vl,hu: 20% 28%  9%  4%  8%  5% 14%  4%  8%\n",
      "[libx264 @ 0x11770ffb0] Weighted P-Frames: Y:0.0% UV:0.0%\n",
      "[libx264 @ 0x11770ffb0] ref P L0: 68.6%  0.3% 25.3%  5.8%\n",
      "[libx264 @ 0x11770ffb0] ref B L0: 38.3% 61.4%  0.3%\n",
      "[libx264 @ 0x11770ffb0] ref B L1: 91.7%  8.3%\n",
      "[libx264 @ 0x11770ffb0] kb/s:192.00\n",
      "[aac @ 0x1177111a0] Qavg: 60654.137\n",
      "ffmpeg version 6.0 Copyright (c) 2000-2023 the FFmpeg developers\n",
      "  built with Apple clang version 14.0.3 (clang-1403.0.22.14.1)\n",
      "  configuration: --prefix=/opt/homebrew/Cellar/ffmpeg/6.0_1 --enable-shared --enable-pthreads --enable-version3 --cc=clang --host-cflags= --host-ldflags= --enable-ffplay --enable-gnutls --enable-gpl --enable-libaom --enable-libaribb24 --enable-libbluray --enable-libdav1d --enable-libjxl --enable-libmp3lame --enable-libopus --enable-librav1e --enable-librist --enable-librubberband --enable-libsnappy --enable-libsrt --enable-libsvtav1 --enable-libtesseract --enable-libtheora --enable-libvidstab --enable-libvmaf --enable-libvorbis --enable-libvpx --enable-libwebp --enable-libx264 --enable-libx265 --enable-libxml2 --enable-libxvid --enable-lzma --enable-libfontconfig --enable-libfreetype --enable-frei0r --enable-libass --enable-libopencore-amrnb --enable-libopencore-amrwb --enable-libopenjpeg --enable-libspeex --enable-libsoxr --enable-libzmq --enable-libzimg --disable-libjack --disable-indev=jack --enable-videotoolbox --enable-audiotoolbox --enable-neon\n",
      "  libavutil      58.  2.100 / 58.  2.100\n",
      "  libavcodec     60.  3.100 / 60.  3.100\n",
      "  libavformat    60.  3.100 / 60.  3.100\n",
      "  libavdevice    60.  1.100 / 60.  1.100\n",
      "  libavfilter     9.  3.100 /  9.  3.100\n",
      "  libswscale      7.  1.100 /  7.  1.100\n",
      "  libswresample   4. 10.100 /  4. 10.100\n",
      "  libpostproc    57.  1.100 / 57.  1.100\n",
      "Input #0, png_pipe, from 'output/image4.jpg':\n",
      "  Duration: N/A, bitrate: N/A\n",
      "  Stream #0:0: Video: png, rgb24(pc), 1024x1024, 25 fps, 25 tbr, 25 tbn\n",
      "[mp3 @ 0x145633c70] Estimating duration from bitrate, this may be inaccurate\n",
      "Input #1, mp3, from 'output/audio4.mp3':\n",
      "  Duration: 00:00:17.68, start: 0.000000, bitrate: 128 kb/s\n",
      "  Stream #1:0: Audio: mp3, 44100 Hz, mono, fltp, 128 kb/s\n",
      "Stream mapping:\n",
      "  Stream #0:0 -> #0:0 (png (native) -> h264 (libx264))\n",
      "  Stream #1:0 -> #0:1 (mp3 (mp3float) -> aac (native))\n",
      "Press [q] to stop, [?] for help\n",
      "[libx264 @ 0x14563ed90] using cpu capabilities: ARMv8 NEON\n",
      "[libx264 @ 0x14563ed90] profile High 4:4:4 Predictive, level 3.1, 4:4:4, 8-bit\n",
      "[libx264 @ 0x14563ed90] 264 - core 164 r3095 baee400 - H.264/MPEG-4 AVC codec - Copyleft 2003-2022 - http://www.videolan.org/x264.html - options: cabac=1 ref=3 deblock=1:0:0 analyse=0x3:0x113 me=hex subme=7 psy=1 psy_rd=1.00:0.00 mixed_ref=1 me_range=16 chroma_me=1 trellis=1 8x8dct=1 cqm=0 deadzone=21,11 fast_pskip=1 chroma_qp_offset=4 threads=15 lookahead_threads=2 sliced_threads=0 nr=0 decimate=1 interlaced=0 bluray_compat=0 constrained_intra=0 bframes=3 b_pyramid=2 b_adapt=1 b_bias=0 direct=1 weightb=1 open_gop=0 weightp=2 keyint=250 keyint_min=25 scenecut=40 intra_refresh=0 rc_lookahead=40 rc=crf mbtree=1 crf=23.0 qcomp=0.60 qpmin=0 qpmax=69 qpstep=4 ip_ratio=1.40 aq=1:1.00\n",
      "Output #0, mp4, to 'output/temp_video_4.mp4':\n",
      "  Metadata:\n",
      "    encoder         : Lavf60.3.100\n",
      "  Stream #0:0: Video: h264 (avc1 / 0x31637661), yuv444p(progressive), 1280x720, q=2-31, 25 fps, 12800 tbn\n",
      "    Metadata:\n",
      "      encoder         : Lavc60.3.100 libx264\n",
      "    Side data:\n",
      "      cpb: bitrate max/min/avg: 0/0/0 buffer size: 0 vbv_delay: N/A\n",
      "  Stream #0:1: Audio: aac (LC) (mp4a / 0x6134706D), 44100 Hz, mono, fltp, 192 kb/s\n",
      "    Metadata:\n",
      "      encoder         : Lavc60.3.100 aac\n",
      "frame=  442 fps=244 q=-1.0 Lsize=     957kB time=00:00:17.67 bitrate= 443.5kbits/s speed=9.74x     \n",
      "video:573kB audio:368kB subtitle:0kB other streams:0kB global headers:0kB muxing overhead: 1.684960%\n",
      "[libx264 @ 0x14563ed90] frame I:2     Avg QP:18.59  size:281668\n",
      "[libx264 @ 0x14563ed90] frame P:111   Avg QP:21.18  size:    87\n",
      "[libx264 @ 0x14563ed90] frame B:329   Avg QP:30.33  size:    39\n",
      "[libx264 @ 0x14563ed90] consecutive B-frames:  0.7%  0.0%  0.7% 98.6%\n",
      "[libx264 @ 0x14563ed90] mb I  I16..4:  2.2% 48.8% 49.0%\n",
      "[libx264 @ 0x14563ed90] mb P  I16..4:  0.0%  0.0%  0.0%  P16..4:  0.4%  0.0%  0.0%  0.0%  0.0%    skip:99.5%\n",
      "[libx264 @ 0x14563ed90] mb B  I16..4:  0.0%  0.0%  0.0%  B16..8:  0.1%  0.0%  0.0%  direct: 0.0%  skip:99.9%  L0: 5.0% L1:95.0% BI: 0.0%\n",
      "[libx264 @ 0x14563ed90] 8x8 transform intra:48.8% inter:93.6%\n",
      "[libx264 @ 0x14563ed90] coded y,u,v intra: 99.0% 85.1% 84.9% inter: 0.0% 0.0% 0.0%\n",
      "[libx264 @ 0x14563ed90] i16 v,h,dc,p:  2% 48%  6% 44%\n",
      "[libx264 @ 0x14563ed90] i8 v,h,dc,ddl,ddr,vr,hd,vl,hu: 20% 23% 10%  6%  5%  5%  9%  5% 16%\n",
      "[libx264 @ 0x14563ed90] i4 v,h,dc,ddl,ddr,vr,hd,vl,hu: 14% 30%  7%  6% 10%  6% 13%  4% 11%\n",
      "[libx264 @ 0x14563ed90] Weighted P-Frames: Y:0.0% UV:0.0%\n",
      "[libx264 @ 0x14563ed90] ref P L0: 30.2%  0.5% 53.3% 16.0%\n",
      "[libx264 @ 0x14563ed90] ref B L0: 93.5%  6.5%\n",
      "[libx264 @ 0x14563ed90] ref B L1: 89.1% 10.9%\n",
      "[libx264 @ 0x14563ed90] kb/s:265.06\n",
      "[aac @ 0x1456400f0] Qavg: 62907.598\n",
      "ffmpeg version 6.0 Copyright (c) 2000-2023 the FFmpeg developers\n",
      "  built with Apple clang version 14.0.3 (clang-1403.0.22.14.1)\n",
      "  configuration: --prefix=/opt/homebrew/Cellar/ffmpeg/6.0_1 --enable-shared --enable-pthreads --enable-version3 --cc=clang --host-cflags= --host-ldflags= --enable-ffplay --enable-gnutls --enable-gpl --enable-libaom --enable-libaribb24 --enable-libbluray --enable-libdav1d --enable-libjxl --enable-libmp3lame --enable-libopus --enable-librav1e --enable-librist --enable-librubberband --enable-libsnappy --enable-libsrt --enable-libsvtav1 --enable-libtesseract --enable-libtheora --enable-libvidstab --enable-libvmaf --enable-libvorbis --enable-libvpx --enable-libwebp --enable-libx264 --enable-libx265 --enable-libxml2 --enable-libxvid --enable-lzma --enable-libfontconfig --enable-libfreetype --enable-frei0r --enable-libass --enable-libopencore-amrnb --enable-libopencore-amrwb --enable-libopenjpeg --enable-libspeex --enable-libsoxr --enable-libzmq --enable-libzimg --disable-libjack --disable-indev=jack --enable-videotoolbox --enable-audiotoolbox --enable-neon\n",
      "  libavutil      58.  2.100 / 58.  2.100\n",
      "  libavcodec     60.  3.100 / 60.  3.100\n",
      "  libavformat    60.  3.100 / 60.  3.100\n",
      "  libavdevice    60.  1.100 / 60.  1.100\n",
      "  libavfilter     9.  3.100 /  9.  3.100\n",
      "  libswscale      7.  1.100 /  7.  1.100\n",
      "  libswresample   4. 10.100 /  4. 10.100\n",
      "  libpostproc    57.  1.100 / 57.  1.100\n",
      "[mov,mp4,m4a,3gp,3g2,mj2 @ 0x143706cd0] Auto-inserting h264_mp4toannexb bitstream filter\n",
      "Input #0, concat, from 'filelist.txt':\n",
      "  Duration: N/A, start: -0.023220, bitrate: 405 kb/s\n",
      "  Stream #0:0(und): Video: h264 (High 4:4:4 Predictive) (avc1 / 0x31637661), yuv444p(progressive), 1280x720, 240 kb/s, 25 fps, 25 tbr, 12800 tbn\n",
      "    Metadata:\n",
      "      handler_name    : VideoHandler\n",
      "      vendor_id       : [0][0][0][0]\n",
      "      encoder         : Lavc60.3.100 libx264\n",
      "  Stream #0:1(und): Audio: aac (LC) (mp4a / 0x6134706D), 44100 Hz, mono, fltp, 165 kb/s\n",
      "    Metadata:\n",
      "      handler_name    : SoundHandler\n",
      "      vendor_id       : [0][0][0][0]\n",
      "Stream mapping:\n",
      "  Stream #0:0 -> #0:0 (h264 (native) -> h264 (libx264))\n",
      "  Stream #0:1 -> #0:1 (aac (native) -> aac (native))\n",
      "Press [q] to stop, [?] for help\n",
      "[libx264 @ 0x144806060] using cpu capabilities: ARMv8 NEON\n",
      "[libx264 @ 0x144806060] profile High 4:4:4 Predictive, level 3.1, 4:4:4, 8-bit\n",
      "[libx264 @ 0x144806060] 264 - core 164 r3095 baee400 - H.264/MPEG-4 AVC codec - Copyleft 2003-2022 - http://www.videolan.org/x264.html - options: cabac=1 ref=3 deblock=1:0:0 analyse=0x3:0x113 me=hex subme=7 psy=1 psy_rd=1.00:0.00 mixed_ref=1 me_range=16 chroma_me=1 trellis=1 8x8dct=1 cqm=0 deadzone=21,11 fast_pskip=1 chroma_qp_offset=4 threads=15 lookahead_threads=2 sliced_threads=0 nr=0 decimate=1 interlaced=0 bluray_compat=0 constrained_intra=0 bframes=3 b_pyramid=2 b_adapt=1 b_bias=0 direct=1 weightb=1 open_gop=0 weightp=2 keyint=250 keyint_min=25 scenecut=40 intra_refresh=0 rc_lookahead=40 rc=crf mbtree=1 crf=23.0 qcomp=0.60 qpmin=0 qpmax=69 qpstep=4 ip_ratio=1.40 aq=1:1.00\n",
      "Output #0, mp4, to 'output/final_output.mp4':\n",
      "  Metadata:\n",
      "    encoder         : Lavf60.3.100\n",
      "  Stream #0:0(und): Video: h264 (avc1 / 0x31637661), yuv444p(progressive), 1280x720, q=2-31, 25 fps, 12800 tbn\n",
      "    Metadata:\n",
      "      handler_name    : VideoHandler\n",
      "      vendor_id       : [0][0][0][0]\n",
      "      encoder         : Lavc60.3.100 libx264\n",
      "    Side data:\n",
      "      cpb: bitrate max/min/avg: 0/0/0 buffer size: 0 vbv_delay: N/A\n",
      "  Stream #0:1(und): Audio: aac (LC) (mp4a / 0x6134706D), 44100 Hz, mono, fltp, 69 kb/s\n",
      "    Metadata:\n",
      "      handler_name    : SoundHandler\n",
      "      vendor_id       : [0][0][0][0]\n",
      "      encoder         : Lavc60.3.100 aac\n",
      "[mov,mp4,m4a,3gp,3g2,mj2 @ 0x107a05c70] Auto-inserting h264_mp4toannexb bitstream filterdrop=0 speed=20.9x    \n",
      "[mov,mp4,m4a,3gp,3g2,mj2 @ 0x1436365f0] Auto-inserting h264_mp4toannexb bitstream filterdrop=0 speed=18.9x    \n",
      "[mov,mp4,m4a,3gp,3g2,mj2 @ 0x107a041f0] Auto-inserting h264_mp4toannexb bitstream filterdrop=0 speed=18.6x    \n",
      "[mov,mp4,m4a,3gp,3g2,mj2 @ 0x12360cce0] Auto-inserting h264_mp4toannexb bitstream filterdrop=0 speed=18.9x    \n",
      "frame= 1366 fps=452 q=28.0 size=    2048kB time=00:00:57.37 bitrate= 292.4kbits/s dup=1 drop=0 speed=  19x    \r"
     ]
    },
    {
     "name": "stdout",
     "output_type": "stream",
     "text": [
      "Video created successfully: output/final_output.mp4\n"
     ]
    },
    {
     "name": "stderr",
     "output_type": "stream",
     "text": [
      "frame= 1657 fps=468 q=-1.0 Lsize=    2592kB time=00:01:06.28 bitrate= 320.3kbits/s dup=1 drop=0 speed=18.7x    \n",
      "video:1962kB audio:574kB subtitle:0kB other streams:0kB global headers:0kB muxing overhead: 2.196153%\n",
      "[libx264 @ 0x144806060] frame I:9     Avg QP:17.12  size:207029\n",
      "[libx264 @ 0x144806060] frame P:417   Avg QP:19.26  size:   191\n",
      "[libx264 @ 0x144806060] frame B:1231  Avg QP:29.64  size:    53\n",
      "[libx264 @ 0x144806060] consecutive B-frames:  0.8%  0.2%  0.2% 98.7%\n",
      "[libx264 @ 0x144806060] mb I  I16..4:  8.3% 51.1% 40.6%\n",
      "[libx264 @ 0x144806060] mb P  I16..4:  0.0%  0.0%  0.0%  P16..4:  0.9%  0.1%  0.1%  0.0%  0.0%    skip:99.0%\n",
      "[libx264 @ 0x144806060] mb B  I16..4:  0.0%  0.0%  0.0%  B16..8:  0.6%  0.0%  0.0%  direct: 0.0%  skip:99.4%  L0:25.7% L1:74.3% BI: 0.0%\n",
      "[libx264 @ 0x144806060] 8x8 transform intra:51.0% inter:83.2%\n",
      "[libx264 @ 0x144806060] coded y,u,v intra: 89.1% 69.4% 68.2% inter: 0.0% 0.0% 0.0%\n",
      "[libx264 @ 0x144806060] i16 v,h,dc,p: 21% 40%  4% 35%\n",
      "[libx264 @ 0x144806060] i8 v,h,dc,ddl,ddr,vr,hd,vl,hu: 17% 28% 11%  6%  5%  5%  9%  6% 12%\n",
      "[libx264 @ 0x144806060] i4 v,h,dc,ddl,ddr,vr,hd,vl,hu: 17% 32%  8%  5%  8%  6% 13%  5%  8%\n",
      "[libx264 @ 0x144806060] Weighted P-Frames: Y:0.0% UV:0.0%\n",
      "[libx264 @ 0x144806060] ref P L0: 49.8%  1.4% 31.9% 16.8%\n",
      "[libx264 @ 0x144806060] ref B L0: 41.5% 58.3%  0.2%\n",
      "[libx264 @ 0x144806060] ref B L1: 90.0% 10.0%\n",
      "[libx264 @ 0x144806060] kb/s:242.40\n",
      "[aac @ 0x144807370] Qavg: 217.482\n"
     ]
    }
   ],
   "source": [
    "import subprocess\n",
    "import os\n",
    "\n",
    "# Temporary file list for the ffmpeg concatenation\n",
    "filelist = 'filelist.txt'\n",
    "with open(filelist, 'w') as f:\n",
    "    for i, (image_file, audio_file) in enumerate(zip(image_filenames, audio_filenames)):\n",
    "        # Get the duration of the audio file in seconds\n",
    "        audio_duration_command = [\n",
    "            'ffprobe', '-v', 'error', '-show_entries', 'format=duration',\n",
    "            '-of', 'default=nw=1:nk=1', audio_file\n",
    "        ]\n",
    "        audio_duration = float(subprocess.check_output(audio_duration_command).decode('utf-8').strip())\n",
    "        # Calculate the number of frames (assuming 25 fps)\n",
    "        num_frames = int(audio_duration * 25)\n",
    "\n",
    "        # Define the output video name for this image + audio\n",
    "        output_video = f'output/temp_video_{i}.mp4'\n",
    "\n",
    "        # Define the Ken Burns effect command with audio parameters\n",
    "        kb_command = [\n",
    "            'ffmpeg',\n",
    "            '-loop', '1',\n",
    "            '-i', image_file,\n",
    "            '-i', audio_file,\n",
    "            '-vf', f'zoompan=z=\\'if(lte(zoom,1.0),1.0,zoom+0.002)\\':d=125:x=\\'iw/2-(iw/zoom/2)\\':y=\\'ih/2-(ih/zoom/2)\\':fps=25:s=hd720',\n",
    "            '-c:v', 'libx264',\n",
    "            '-c:a', 'aac',  # Explicit AAC encoding\n",
    "            '-b:a', '192k',  # Set audio bitrate\n",
    "            '-ar', '44100',  # Set audio sample rate\n",
    "            '-t', str(audio_duration),  # Set the duration of the output video to match the audio duration\n",
    "            '-map', '0:v:0',  # Map video stream\n",
    "            '-map', '1:a:0',  # Map audio stream\n",
    "            output_video\n",
    "        ]\n",
    "        \n",
    "        # Run the Ken Burns effect command\n",
    "        subprocess.call(kb_command)\n",
    "        \n",
    "        # Write the file output to the file list for concatenation\n",
    "        f.write(f\"file '{output_video}'\\n\")\n",
    "\n",
    "# Define the transition effect and concatenation command\n",
    "transition_command = [\n",
    "    'ffmpeg',\n",
    "    '-f', 'concat',\n",
    "    '-safe', '0',\n",
    "    '-i', filelist,\n",
    "    '-c:v', 'libx264',\n",
    "    '-c:a', 'aac',\n",
    "    '-strict', 'experimental',\n",
    "    'output/final_output.mp4'\n",
    "]\n",
    "\n",
    "# Run the transition effect and concatenation command\n",
    "subprocess.call(transition_command)\n",
    "\n",
    "# Clean up temporary video files and the file list\n",
    "os.remove(filelist)\n",
    "# Uncomment the following lines if you want to remove temporary video files\n",
    "# for i in range(len(image_files)):\n",
    "#     os.remove(f'output/temp_video_{i}.mp4')\n",
    "\n",
    "print(\"Video created successfully: output/final_output.mp4\")\n",
    "\n",
    "\n"
   ]
  }
 ],
 "metadata": {
  "kernelspec": {
   "display_name": "Python 3",
   "language": "python",
   "name": "python3"
  },
  "language_info": {
   "codemirror_mode": {
    "name": "ipython",
    "version": 3
   },
   "file_extension": ".py",
   "mimetype": "text/x-python",
   "name": "python",
   "nbconvert_exporter": "python",
   "pygments_lexer": "ipython3",
   "version": "3.10.12"
  }
 },
 "nbformat": 4,
 "nbformat_minor": 2
}
